<svg width="70" height="70" viewBox="0 0 70 70" fill="none" xmlns="http://www.w3.org/2000/svg">
<path d="M46.2 35C46.2 37.2151 45.5431 39.3806 44.3125 41.2224C43.0818 43.0642 41.3326 44.4997 39.2861 45.3475C37.2395 46.1952 34.9876 46.417 32.815 45.9848C30.6424 45.5526 28.6468 44.4859 27.0804 42.9196C25.5141 41.3532 24.4474 39.3576 24.0152 37.185C23.583 35.0124 23.8048 32.7605 24.6525 30.7139C25.5002 28.6674 26.9358 26.9182 28.7776 25.6875C30.6194 24.4569 32.7848 23.8 35 23.8C37.9676 23.8092 40.811 24.9922 42.9094 27.0906C45.0078 29.189 46.1908 32.0324 46.2 35ZM70 19.6V50.4C70 55.5982 67.935 60.5836 64.2593 64.2593C60.5836 67.935 55.5982 70 50.4 70H19.6C14.4018 70 9.41642 67.935 5.74071 64.2593C2.06499 60.5836 0 55.5982 0 50.4V19.6C0 14.4018 2.06499 9.41642 5.74071 5.74071C9.41642 2.06499 14.4018 0 19.6 0H50.4C55.5982 0 60.5836 2.06499 64.2593 5.74071C67.935 9.41642 70 14.4018 70 19.6ZM51.8 35C51.8 31.6773 50.8147 28.4292 48.9687 25.6664C47.1227 22.9037 44.4989 20.7504 41.4291 19.4788C38.3593 18.2073 34.9814 17.8746 31.7225 18.5228C28.4636 19.171 25.4701 20.7711 23.1206 23.1206C20.7711 25.4701 19.171 28.4636 18.5228 31.7225C17.8746 34.9814 18.2073 38.3593 19.4788 41.4291C20.7504 44.4989 22.9037 47.1227 25.6664 48.9687C28.4292 50.8147 31.6773 51.8 35 51.8C39.4556 51.8 43.7288 50.03 46.8794 46.8794C50.03 43.7288 51.8 39.4556 51.8 35ZM57.4 16.8C57.4 15.9693 57.1537 15.1573 56.6922 14.4666C56.2307 13.7759 55.5747 13.2376 54.8073 12.9197C54.0398 12.6018 53.1953 12.5186 52.3806 12.6807C51.5659 12.8428 50.8175 13.2428 50.2302 13.8302C49.6428 14.4175 49.2428 15.1659 49.0807 15.9806C48.9186 16.7953 49.0018 17.6398 49.3197 18.4073C49.6376 19.1747 50.1759 19.8307 50.8666 20.2922C51.5573 20.7537 52.3693 21 53.2 21C54.3139 21 55.3822 20.5575 56.1698 19.7698C56.9575 18.9822 57.4 17.9139 57.4 16.8Z" fill="black"/>
</svg>
