<svg width="87" height="70" viewBox="0 0 87 70" fill="none" xmlns="http://www.w3.org/2000/svg">
<path d="M86.1412 8.23529C82.9706 9.67647 79.5529 10.6235 76.0118 11.0765C79.6353 8.89412 82.4353 5.43529 83.7529 1.27647C80.3353 3.33529 76.5471 4.77647 72.5529 5.6C69.3 2.05882 64.7294 0 59.5412 0C49.8647 0 41.9588 7.90588 41.9588 17.6647C41.9588 19.0647 42.1235 20.4235 42.4118 21.7C27.7529 20.9588 14.7 13.9176 6.01177 3.25294C4.48824 5.84706 3.62353 8.89412 3.62353 12.1059C3.62353 18.2412 6.71176 23.6765 11.4882 26.7647C8.56471 26.7647 5.84706 25.9412 3.45882 24.7059V24.8294C3.45882 33.3941 9.55294 40.5588 17.6235 42.1647C15.0324 42.8738 12.3122 42.9725 9.67647 42.4529C10.7949 45.9632 12.9852 49.0346 15.9395 51.2356C18.8938 53.4366 22.4636 54.6564 26.1471 54.7235C19.9032 59.6665 12.1635 62.3384 4.2 62.3C2.8 62.3 1.4 62.2176 0 62.0529C7.82353 67.0765 17.1294 70 27.0941 70C59.5412 70 77.3706 43.0706 77.3706 19.7235C77.3706 18.9412 77.3706 18.2 77.3294 17.4176C80.7882 14.9471 83.7529 11.8176 86.1412 8.23529Z" fill="black"/>
</svg>
